HIERARCHY
ROOT root
{
	OFFSET 0.000000 0.000000 0.000000
	CHANNELS 6 Xposition Yposition Zposition Zrotation Yrotation Xrotation
	JOINT lhip
	{
		OFFSET 0.058581 -0.082280 -0.017664
		CHANNELS 3 Zrotation Yrotation Xrotation
		JOINT lknee
		{
			OFFSET 0.043451 -0.386469 0.008037
			CHANNELS 3 Zrotation Yrotation Xrotation
			JOINT lankle
			{
				OFFSET -0.014790 -0.426874 -0.037428
				CHANNELS 3 Zrotation Yrotation Xrotation
				JOINT ltoe
				{
					OFFSET 0.041054 -0.060286 0.122042
					CHANNELS 3 Zrotation Yrotation Xrotation
					End Site
					{
						OFFSET 0.000000 0.000000 0.000000
					}
				}
			}
		}
	}
	JOINT rhip
	{
		OFFSET -0.060310 -0.090513 -0.013543
		CHANNELS 3 Zrotation Yrotation Xrotation
		JOINT rknee
		{
			OFFSET -0.043257 -0.383688 -0.004843
			CHANNELS 3 Zrotation Yrotation Xrotation
			JOINT rankle
			{
				OFFSET 0.019056 -0.420046 -0.034562
				CHANNELS 3 Zrotation Yrotation Xrotation
				JOINT rtoe
				{
					OFFSET -0.034840 -0.062106 0.130323
					CHANNELS 3 Zrotation Yrotation Xrotation
					End Site
					{
						OFFSET 0.000000 0.000000 0.000000
					}
				}
			}
		}
	}
	JOINT lowerback
	{
		OFFSET 0.004439 0.124404 -0.038385
		CHANNELS 3 Zrotation Yrotation Xrotation
		JOINT upperback
		{
			OFFSET 0.004488 0.137956 0.026820
			CHANNELS 3 Zrotation Yrotation Xrotation
			JOINT chest
			{
				OFFSET -0.002265 0.056032 0.002855
				CHANNELS 3 Zrotation Yrotation Xrotation
				JOINT lowerneck
				{
					OFFSET -0.013390 0.211636 -0.033468
					CHANNELS 3 Zrotation Yrotation Xrotation
					JOINT upperneck
					{
						OFFSET 0.010113 0.088937 0.050410
						CHANNELS 3 Zrotation Yrotation Xrotation
						End Site
						{
							OFFSET 0.000000 0.000000 0.000000
						}
					}
				}
				JOINT lclavicle
				{
					OFFSET 0.071702 0.114000 -0.018898
					CHANNELS 3 Zrotation Yrotation Xrotation
					JOINT lshoulder
					{
						OFFSET 0.122921 0.045205 -0.019046
						CHANNELS 3 Zrotation Yrotation Xrotation
						JOINT lelbow
						{
							OFFSET 0.255332 -0.015649 -0.022946
							CHANNELS 3 Zrotation Yrotation Xrotation
							JOINT lwrist
							{
								OFFSET 0.265709 0.012698 -0.007375
								CHANNELS 3 Zrotation Yrotation Xrotation
								End Site
								{
									OFFSET 0.000000 0.000000 0.000000
								}
							}
						}
					}
				}
				JOINT rclavicle
				{
					OFFSET -0.082954 0.112472 -0.023707
					CHANNELS 3 Zrotation Yrotation Xrotation
					JOINT rshoulder
					{
						OFFSET -0.113228 0.046853 -0.008472
						CHANNELS 3 Zrotation Yrotation Xrotation
						JOINT relbow
						{
							OFFSET -0.260127 -0.014369 -0.031269
							CHANNELS 3 Zrotation Yrotation Xrotation
							JOINT rwrist
							{
								OFFSET -0.269108 0.006794 -0.006027
								CHANNELS 3 Zrotation Yrotation Xrotation
								End Site
								{
									OFFSET 0.000000 0.000000 0.000000
								}
							}
						}
					}
				}
			}
		}
	}
}
MOTION
Frames: 15
Frame Time: 0.033333
1.363737 0.659050 0.653901 -91.301086 1.531380 108.697966 17.471700 15.767960 -88.223388 -8.844394 27.291294 97.681108 8.295178 -1.315520 -41.103877 0.000000 -0.000000 0.000000 -10.158054 -9.545440 -87.324571 -4.770294 -21.434998 101.347002 -3.181999 -5.238272 -41.598541 0.000000 -0.000000 0.000000 -0.391756 3.093673 81.226789 -2.307896 -2.715042 -9.943155 4.240107 -1.013336 0.259122 -4.060292 1.551612 -34.337994 15.061946 -4.563551 -22.513600 -8.671568 -30.497837 -3.303626 -16.765462 -12.454559 -6.269425 39.691205 -62.110145 -49.151000 33.228552 -22.594679 -23.757845 4.664131 31.264326 5.978358 11.662301 12.572521 -11.411100 -27.014563 63.295647 -18.922578 -25.101407 22.055215 3.080454 
1.361527 0.661225 0.659110 -91.137261 1.845417 110.383955 17.658508 16.296008 -88.764064 -8.968610 27.551947 96.643493 8.106146 -1.333141 -41.533353 0.000000 -0.000000 0.000000 -10.471327 -9.002193 -87.955970 -4.643012 -22.571713 100.228313 -2.848196 -5.548337 -41.940385 0.000000 -0.000000 0.000000 -0.455865 3.729482 81.656435 -1.537179 -2.399954 -7.074707 4.540433 -1.428500 -0.936459 -3.889280 4.137010 -35.907406 12.844124 -6.282499 -20.066182 -10.574955 -27.872467 -1.803072 -20.888229 -10.553415 -2.920511 23.909017 -58.648442 -32.700924 33.621162 -23.499642 -23.201637 8.251041 29.292110 8.303633 10.868993 12.583802 -7.564328 -12.882568 59.140446 -5.470107 -27.787589 20.623214 0.515114 
1.355212 0.662879 0.665182 -90.506725 1.558820 111.483717 16.806311 16.135187 -88.833218 -9.014263 27.146535 95.547211 7.892379 -1.674124 -40.958250 0.000000 -0.000000 0.000000 -10.206935 -9.315516 -87.592942 -5.422082 -22.117010 99.557625 -3.252827 -5.392835 -41.910989 0.000000 -0.000000 0.000000 -0.384696 2.232699 83.589054 -2.554052 -2.647905 -8.378715 4.187806 -1.660980 0.131717 -4.486533 2.250533 -33.291995 14.854163 -5.148142 -21.678903 -10.894177 -26.917264 -0.545211 -25.750858 -5.833092 -1.208322 10.393583 -52.795907 -20.051262 32.056248 -26.639761 -20.626315 5.982380 28.927094 6.493587 19.225045 10.079408 -3.902476 -1.586796 53.474858 4.984433 -25.183258 22.215003 4.562661 
1.348333 0.664116 0.673066 -90.352897 1.895813 113.469983 16.399459 17.221314 -89.290659 -10.426807 27.108703 93.741361 7.029538 -1.737522 -40.841479 0.000000 -0.000000 0.000000 -9.853278 -9.726372 -87.625928 -4.818773 -23.310178 97.732913 -2.866866 -5.360166 -41.763246 0.000000 -0.000000 0.000000 -0.094348 1.965677 83.679600 -3.406832 -3.036918 -8.604992 4.069020 -1.790866 0.484828 -3.945753 1.536680 -28.698318 16.241092 -2.884671 -25.352831 -16.255393 -26.606279 5.204022 -25.893173 1.423746 -1.524436 1.339874 -49.202492 -11.878796 29.224589 -26.809913 -20.328610 8.746761 28.665787 7.200723 20.766957 5.769425 -2.635291 11.877143 47.093131 17.872558 -23.244293 21.626967 6.519545 
1.343328 0.665371 0.680477 -90.242512 2.279204 115.415806 16.050472 18.183485 -89.845087 -10.991673 27.212027 92.257714 7.321894 -1.696015 -40.509552 0.000000 -0.000000 0.000000 -9.273909 -9.982336 -87.935287 -4.561017 -24.549192 96.094159 -3.770192 -5.426073 -41.255464 0.000000 -0.000000 0.000000 0.363965 2.101689 84.027650 -3.759365 -2.516362 -8.350813 3.630051 -1.737404 0.132264 -3.797462 0.951712 -29.349621 16.371305 -3.132148 -23.576729 -17.286016 -23.226069 5.671855 -30.619371 5.868504 0.069405 -4.790459 -43.573256 -3.157985 29.397685 -27.433029 -17.792903 7.065895 26.143682 7.785655 29.122915 1.283353 0.248041 13.575262 42.950957 22.311715 -21.239829 19.454641 5.729491 
1.339389 0.666317 0.686812 -90.038230 2.108923 116.633498 15.768334 18.429494 -89.850690 -11.693042 27.523546 90.550717 7.483057 -1.559590 -39.992716 0.000000 -0.000000 0.000000 -8.955318 -10.532066 -87.748730 -4.132166 -25.245989 94.452688 -4.196551 -5.746794 -41.282113 0.000000 -0.000000 0.000000 0.545663 2.109874 84.247550 -4.041391 -2.784496 -7.041803 3.393699 -1.430194 -0.869124 -3.796787 -0.186660 -27.019120 17.603692 -2.037574 -23.922138 -20.135699 -19.309700 7.314090 -32.161112 12.794049 0.213199 -11.289987 -40.609933 3.364092 26.216984 -27.655848 -16.147926 10.180702 24.971361 12.254429 31.869869 -5.941214 2.098472 15.412831 41.411635 26.383536 -18.464633 17.934286 5.683167 
1.337025 0.667320 0.693110 -89.846951 1.821001 116.708067 15.232784 18.249101 -88.998572 -12.742001 27.173090 88.868326 6.904362 -1.232988 -39.320963 0.000000 -0.000000 0.000000 -8.351133 -10.294775 -86.831332 -3.751592 -24.512893 93.081395 -4.051213 -6.372247 -41.180468 0.000000 -0.000000 0.000000 0.336195 1.118637 85.482624 -5.163329 -3.167377 -5.542910 2.750421 -1.160513 -1.646574 -3.118748 -0.820507 -27.434177 18.019378 -1.760057 -22.519562 -20.950940 -14.128462 6.586248 -32.818479 20.160096 0.111894 -17.493190 -36.523858 9.796367 24.479476 -29.913919 -10.819063 9.647254 21.356870 12.062388 35.242817 -10.495037 2.435719 23.501433 35.210078 34.176733 -16.256852 18.089279 11.414025 
1.335889 0.667654 0.698208 -89.986178 1.502911 117.681829 15.003592 18.056036 -88.952431 -13.392237 27.251900 87.076534 6.689314 -0.760587 -39.116301 0.000000 -0.000000 0.000000 -8.627250 -10.135760 -87.024878 -3.602459 -24.646450 91.886494 -3.439816 -6.375494 -41.226151 0.000000 -0.000000 0.000000 -0.105411 1.331308 84.805215 -5.299312 -2.932612 -6.039075 2.570649 -0.501069 -1.041971 -3.804271 -1.617094 -21.036081 18.894547 -0.616672 -26.117468 -22.878388 -9.371701 6.630973 -31.143407 26.815311 0.429949 -22.911933 -31.390106 13.725380 20.756773 -32.124029 -4.353489 12.800917 18.032329 14.970903 35.058839 -17.593288 3.306243 27.840346 30.292877 37.585715 -15.652318 19.150684 12.854359 
1.336204 0.668524 0.703908 -90.293263 1.247809 117.547629 14.597866 17.759176 -87.994013 -14.733650 26.818577 85.104408 6.382173 0.355197 -38.386041 0.000000 -0.000000 0.000000 -8.554305 -9.438676 -86.369600 -3.120871 -24.114788 90.546665 -3.209616 -7.454262 -40.879729 0.000000 -0.000000 0.000000 -1.310910 0.311890 84.771670 -6.433079 -3.591000 -4.393098 1.298975 0.515111 -1.669695 -3.238265 -1.294291 -18.414563 20.068999 0.552343 -27.022196 -24.144043 -3.365524 5.182836 -25.500799 34.995256 1.286335 -28.793481 -27.746221 17.844366 14.601048 -32.875103 3.776789 14.896122 14.682788 17.033688 34.820124 -23.341451 4.345978 32.107752 26.529524 42.040269 -12.904365 18.823903 16.862009 
1.335313 0.669760 0.708428 -90.401696 0.885705 117.502144 13.950663 17.263070 -87.281795 -15.731742 26.112337 83.450037 6.203589 1.504468 -37.831313 0.000000 -0.000000 0.000000 -8.141767 -9.040695 -85.772129 -2.701690 -23.306124 89.407209 -2.919041 -8.344055 -40.829308 0.000000 -0.000000 0.000000 -2.186743 -0.315575 84.725587 -7.027149 -4.142249 -5.284837 0.236574 1.629026 -0.596885 -3.314696 -1.283593 -14.151704 21.612106 2.231052 -29.354121 -25.642331 1.737359 4.373278 -18.629790 41.448309 3.708595 -31.642390 -24.526137 19.351433 8.376642 -32.425439 10.127515 17.392196 11.289867 19.109526 34.141255 -29.482483 5.963670 34.510479 23.867867 44.075249 -9.006279 17.642252 19.001887 
1.334295 0.671635 0.714149 -91.015072 0.480185 117.802560 13.304546 16.969000 -86.664221 -16.644857 25.431372 81.692384 6.226279 2.598313 -37.148373 0.000000 -0.000000 0.000000 -8.308015 -8.745899 -85.356865 -1.920818 -23.124871 87.829782 -2.528137 -8.719129 -40.445464 0.000000 -0.000000 0.000000 -3.196182 -0.843090 84.411247 -7.869180 -5.151922 -6.270932 -0.898070 2.859453 0.444472 -3.145483 -1.319744 -10.476329 22.526648 4.148491 -31.498003 -25.968748 6.481359 2.648879 -12.187024 45.445640 6.036506 -32.139249 -20.912972 19.914095 4.333943 -31.953464 17.046943 18.544319 8.394513 20.626508 34.725463 -34.120700 7.654015 36.266828 22.351106 45.055439 -7.499194 16.930321 18.145384 
1.331336 0.672746 0.720264 -91.305340 -0.083596 118.221004 12.794692 16.020173 -86.118636 -17.186731 24.808219 80.082038 6.357862 3.813184 -36.759481 0.000000 -0.000000 0.000000 -8.484830 -9.052789 -84.635547 -1.213533 -22.923648 86.308671 -2.339996 -8.640622 -40.262744 0.000000 -0.000000 0.000000 -3.590949 -0.831573 84.177496 -8.162718 -5.632293 -6.241734 -1.244421 3.475496 0.410758 -3.731632 -2.191851 -8.521728 23.102075 5.252039 -32.646338 -27.148709 7.837772 2.159303 -9.488623 48.283094 6.800989 -30.015320 -18.457514 17.786053 1.410912 -29.159748 22.343465 20.435538 7.280929 22.213384 35.729959 -38.379039 7.983616 37.353759 23.410035 46.815629 0.163444 12.006549 18.073576 
1.325945 0.674027 0.726661 -91.839326 -0.232395 119.026786 12.791191 15.436477 -85.569444 -16.910096 24.406983 78.861766 6.513825 4.321682 -36.637683 0.000000 -0.000000 0.000000 -8.494081 -8.549017 -84.213876 -0.964550 -22.598026 84.944266 -2.566558 -8.595903 -39.947451 0.000000 -0.000000 0.000000 -3.634777 -0.384460 84.159331 -8.604500 -5.630730 -6.690911 -1.257991 3.481439 0.626607 -4.444448 -2.280536 -9.321790 23.731467 5.301496 -33.047364 -27.967834 6.560463 1.473089 -12.040900 48.967844 5.728968 -27.923702 -17.439493 18.097122 -3.489753 -25.811565 25.500547 21.290936 8.261557 22.253419 38.923363 -39.156393 7.997232 38.160507 24.575944 49.615151 8.737773 4.189015 15.958790 
1.318456 0.675674 0.732677 -92.414672 0.311571 120.461520 13.142713 15.447188 -85.763827 -15.917453 24.104605 78.477250 6.457653 4.317113 -36.439636 0.000000 -0.000000 0.000000 -8.291873 -7.098209 -84.432870 -1.437856 -22.337106 83.832670 -2.966665 -8.127640 -39.996677 0.000000 -0.000000 0.000000 -3.328487 0.728539 83.775266 -8.525425 -4.887008 -8.743924 -0.415108 2.889842 1.489286 -5.576499 -2.742357 -8.417488 23.156406 5.015676 -33.030751 -27.428758 4.058734 1.318029 -21.693343 46.631089 1.689965 -25.167540 -17.703046 19.051909 -3.882081 -23.306693 23.968222 20.906094 10.537248 21.506463 44.083270 -35.349040 6.961034 36.339351 23.226286 50.087961 17.030906 -0.684657 12.561576 
1.307933 0.673800 0.738130 -91.609671 -0.224724 122.568309 13.218121 13.811854 -86.866370 -13.180108 25.812114 78.559953 7.552867 4.938182 -36.494331 0.000000 -0.000000 0.000000 -9.177656 -7.685682 -84.710497 -2.521061 -22.850158 83.691510 -3.024173 -6.893983 -40.951267 0.000000 -0.000000 0.000000 -2.512662 1.494461 81.718498 -7.026460 -3.500016 -9.107266 0.739373 2.489205 0.972565 -6.485715 -3.402575 -8.414821 22.572137 3.113209 -32.656201 -27.895289 1.220480 1.774681 -31.547183 39.676125 -1.720593 -21.416211 -18.328273 16.209255 -1.424943 -20.721888 20.302821 21.462831 10.216158 18.926395 47.046830 -29.856743 4.894317 31.183089 20.585070 46.062160 15.754990 -1.546594 18.421792 
